{
  "accessors": [
    {
      "bufferView": 2,
      "componentType": 5126,
      "count": 5281,
      "max": [
        1.7091431617736816,
        0.8587387204170227,
        1.3921750783920288
      ],
      "min": [
        -2.0278570652008057,
        -12.412893295288086,
        -13.972552299499512
      ],
      "type": "VEC3"
    },
    {
      "bufferView": 2,
      "byteOffset": 63372,
      "componentType": 5126,
      "count": 5281,
      "max": [
        0.9999992847442627,
        0.999845027923584,
        0.9997345209121704
      ],
      "min": [
        -0.9999992847442627,
        -0.9995313882827759,
        -0.9969915747642517
      ],
      "type": "VEC3"
    },
    {
      "bufferView": 1,
      "componentType": 5126,
      "count": 5281,
      "max": [
        0.8750001192092896,
        1.0000001192092896
      ],
      "min": [
        0.1250000149011612,
        0.0
      ],
      "type": "VEC2"
    },
    {
      "bufferView": 0,
      "componentType": 5125,
      "count": 29856,
      "type": "SCALAR"
    },
    {
      "bufferView": 2,
      "byteOffset": 126744,
      "componentType": 5126,
      "count": 28105,
      "max": [
        2.6346402168273926,
        4.6724982261657715,
        9.23062515258789
      ],
      "min": [
        -2.8487119674682617,
        -11.446056365966797,
        -10.133187294006348
      ],
      "type": "VEC3"
    },
    {
      "bufferView": 2,
      "byteOffset": 464004,
      "componentType": 5126,
      "count": 28105,
      "max": [
        0.9999325275421143,
        0.9999864101409912,
        0.99965500831604
      ],
      "min": [
        -0.9999253749847412,
        -0.999760627746582,
        -0.9998712539672852
      ],
      "type": "VEC3"
    },
    {
      "bufferView": 1,
      "byteOffset": 42248,
      "componentType": 5126,
      "count": 28105,
      "max": [
        0.8750001192092896,
        1.0000001192092896
      ],
      "min": [
        0.125,
        0.0
      ],
      "type": "VEC2"
    },
    {
      "bufferView": 0,
      "byteOffset": 119424,
      "componentType": 5125,
      "count": 83712,
      "type": "SCALAR"
    },
    {
      "bufferView": 2,
      "byteOffset": 801264,
      "componentType": 5126,
      "count": 46592,
      "max": [
        10.834192276000977,
        -9.142377853393555,
        10.009183883666992
      ],
      "min": [
        -0.3917716443538666,
        -12.394197463989258,
        -7.192796230316162
      ],
      "type": "VEC3"
    },
    {
      "bufferView": 2,
      "byteOffset": 1360368,
      "componentType": 5126,
      "count": 46592,
      "max": [
        0.9996538162231445,
        0.9999759793281555,
        0.999887228012085
      ],
      "min": [
        -0.9998498558998108,
        -0.9998879432678223,
        -0.9905542731285095
      ],
      "type": "VEC3"
    },
    {
      "bufferView": 1,
      "byteOffset": 267088,
      "componentType": 5126,
      "count": 46592,
      "max": [
        0.8750001192092896,
        1.0000001192092896
      ],
      "min": [
        0.125,
        0.0
      ],
      "type": "VEC2"
    },
    {
      "bufferView": 0,
      "byteOffset": 454272,
      "componentType": 5125,
      "count": 69888,
      "type": "SCALAR"
    },
    {
      "bufferView": 2,
      "byteOffset": 1919472,
      "componentType": 5126,
      "count": 3623,
      "max": [
        3.260404109954834,
        -2.109464168548584,
        -12.31771183013916
      ],
      "min": [
        -6.658881664276123,
        -15.717170715332031,
        -27.13149642944336
      ],
      "type": "VEC3"
    },
    {
      "bufferView": 2,
      "byteOffset": 1962948,
      "componentType": 5126,
      "count": 3623,
      "max": [
        0.9999912977218628,
        0.9914072751998901,
        0.9997090101242065
      ],
      "min": [
        -0.9999493360519409,
        -0.9992548227310181,
        -0.9995449781417847
      ],
      "type": "VEC3"
    },
    {
      "bufferView": 1,
      "byteOffset": 639824,
      "componentType": 5126,
      "count": 3623,
      "max": [
        0.37500008940696716,
        1.0000001192092896
      ],
      "min": [
        0.1249999925494194,
        0.0
      ],
      "type": "VEC2"
    },
    {
      "bufferView": 0,
      "byteOffset": 733824,
      "componentType": 5125,
      "count": 19680,
      "type": "SCALAR"
    },
    {
      "bufferView": 2,
      "byteOffset": 2006424,
      "componentType": 5126,
      "count": 500,
      "max": [
        1.36579167842865,
        -6.468585968017578,
        -23.740516662597656
      ],
      "min": [
        -4.58654260635376,
        -10.0623140335083,
        -25.207714080810547
      ],
      "type": "VEC3"
    },
    {
      "bufferView": 2,
      "byteOffset": 2012424,
      "componentType": 5126,
      "count": 500,
      "max": [
        0.999618411064148,
        0.9909035563468933,
        0.9990362524986267
      ],
      "min": [
        -0.9999493360519409,
        -0.9963711500167847,
        -0.999189019203186
      ],
      "type": "VEC3"
    },
    {
      "bufferView": 1,
      "byteOffset": 668808,
      "componentType": 5126,
      "count": 500,
      "max": [
        0.37500008940696716,
        0.5000001192092896
      ],
      "min": [
        0.125,
        0.25
      ],
      "type": "VEC2"
    },
    {
      "bufferView": 0,
      "byteOffset": 812544,
      "componentType": 5125,
      "count": 2304,
      "type": "SCALAR"
    },
    {
      "bufferView": 2,
      "byteOffset": 2018424,
      "componentType": 5126,
      "count": 3913,
      "max": [
        2.2111456394195557,
        3.5640220642089844,
        1.5774967670440674
      ],
      "min": [
        -2.319025754928589,
        -2.043635606765747,
        -1.4446043968200684
      ],
      "type": "VEC3"
    },
    {
      "bufferView": 2,
      "byteOffset": 2065380,
      "componentType": 5126,
      "count": 3913,
      "max": [
        0.9999011754989624,
        0.9959167242050171,
        0.9999648332595825
      ],
      "min": [
        -0.9999992847442627,
        -0.9998792409896851,
        -0.999998927116394
      ],
      "type": "VEC3"
    },
    {
      "bufferView": 1,
      "byteOffset": 672808,
      "componentType": 5126,
      "count": 3913,
      "max": [
        0.8750001192092896,
        1.0000001192092896
      ],
      "min": [
        0.125,
        0.0
      ],
      "type": "VEC2"
    },
    {
      "bufferView": 0,
      "byteOffset": 821760,
      "componentType": 5125,
      "count": 22272,
      "type": "SCALAR"
    },
    {
      "bufferView": 2,
      "byteOffset": 2112336,
      "componentType": 5126,
      "count": 882,
      "max": [
        1.208139419555664,
        2.4563536643981934,
        2.620058059692383
      ],
      "min": [
        -1.1001189947128296,
        0.8333002328872681,
        0.38186705112457275
      ],
      "type": "VEC3"
    },
    {
      "bufferView": 2,
      "byteOffset": 2122920,
      "componentType": 5126,
      "count": 882,
      "max": [
        0.9983522891998291,
        0.9966080188751221,
        0.9967803359031677
      ],
      "min": [
        -0.9983522891998291,
        -0.9966080188751221,
        -0.9967803359031677
      ],
      "type": "VEC3"
    },
    {
      "bufferView": 1,
      "byteOffset": 704112,
      "componentType": 5126,
      "count": 882,
      "max": [
        0.8750001192092896,
        1.0000001192092896
      ],
      "min": [
        0.1250000149011612,
        0.0
      ],
      "type": "VEC2"
    },
    {
      "bufferView": 0,
      "byteOffset": 910848,
      "componentType": 5125,
      "count": 4608,
      "type": "SCALAR"
    },
    {
      "bufferView": 2,
      "byteOffset": 2133504,
      "componentType": 5126,
      "count": 324,
      "max": [
        0.6414979100227356,
        2.5836334228515625,
        2.2173850536346436
      ],
      "min": [
        -0.6674688458442688,
        2.066159248352051,
        0.9174706935882568
      ],
      "type": "VEC3"
    },
    {
      "bufferView": 2,
      "byteOffset": 2137392,
      "componentType": 5126,
      "count": 324,
      "max": [
        0.8520785570144653,
        0.9647853970527649,
        0.9057109951972961
      ],
      "min": [
        -0.8520785570144653,
        -0.9647853970527649,
        -0.9057109951972961
      ],
      "type": "VEC3"
    },
    {
      "bufferView": 1,
      "byteOffset": 711168,
      "componentType": 5126,
      "count": 324,
      "max": [
        0.6250000596046448,
        0.5000000596046448
      ],
      "min": [
        0.3750000298023224,
        0.2500000298023224
      ],
      "type": "VEC2"
    },
    {
      "bufferView": 0,
      "byteOffset": 929280,
      "componentType": 5125,
      "count": 1920,
      "type": "SCALAR"
    }
  ],
  "asset": {
    "extras": {
      "author": "zoyazainab16 (https://sketchfab.com/zoyazainab16)",
      "license": "CC-BY-4.0 (http://creativecommons.org/licenses/by/4.0/)",
      "source": "https://sketchfab.com/3d-models/road-runner-96f5c8107245474abbf8ff3ef282d37b",
      "title": "Road Runner"
    },
    "generator": "Sketchfab-15.30.0",
    "version": "2.0"
  },
  "bufferViews": [
    {
      "buffer": 0,
      "byteLength": 936960,
      "name": "floatBufferViews",
      "target": 34963
    },
    {
      "buffer": 0,
      "byteLength": 713760,
      "byteOffset": 936960,
      "byteStride": 8,
      "name": "floatBufferViews",
      "target": 34962
    },
    {
      "buffer": 0,
      "byteLength": 2141280,
      "byteOffset": 1650720,
      "byteStride": 12,
      "name": "floatBufferViews",
      "target": 34962
    }
  ],
  "buffers": [
    {
      "byteLength": 3792000,
      "uri": "scene.bin"
    }
  ],
  "materials": [
    {
      "doubleSided": true,
      "name": "Material.001",
      "pbrMetallicRoughness": {
        "baseColorFactor": [
          0.168611,
          0.349477,
          0.8,
          1.0
        ],
        "metallicFactor": 0.0,
        "roughnessFactor": 0.9231792922985875
      }
    },
    {
      "doubleSided": true,
      "name": "Material.007",
      "pbrMetallicRoughness": {
        "baseColorFactor": [
          0.0236846,
          0.0,
          0.8,
          1.0
        ],
        "metallicFactor": 0.0,
        "roughnessFactor": 0.9859585337762823
      }
    },
    {
      "doubleSided": true,
      "name": "Material.009",
      "pbrMetallicRoughness": {
        "baseColorFactor": [
          0.0732358,
          0.360575,
          0.8,
          1.0
        ],
        "metallicFactor": 0.0,
        "roughnessFactor": 0.9259384834421853
      }
    },
    {
      "doubleSided": true,
      "name": "Material.003",
      "pbrMetallicRoughness": {
        "baseColorFactor": [
          0.8,
          0.305485,
          0.095761,
          1.0
        ],
        "metallicFactor": 0.0,
        "roughnessFactor": 0.911568695545161
      }
    },
    {
      "doubleSided": true,
      "name": "Material.004",
      "pbrMetallicRoughness": {
        "baseColorFactor": [
          0.587329,
          0.181515,
          0.0268184,
          1.0
        ],
        "metallicFactor": 0.0,
        "roughnessFactor": 0.942617584871696
      }
    },
    {
      "doubleSided": true,
      "name": "Material",
      "pbrMetallicRoughness": {
        "baseColorFactor": [
          0.8,
          0.399881,
          0.00828604,
          1.0
        ],
        "metallicFactor": 0.0,
        "roughnessFactor": 0.897884780810953
      }
    },
    {
      "doubleSided": true,
      "name": "Material.002",
      "pbrMetallicRoughness": {
        "baseColorFactor": [
          0.8,
          0.8,
          0.8,
          1.0
        ],
        "metallicFactor": 0.0,
        "roughnessFactor": 0.8211145618000169
      }
    },
    {
      "doubleSided": true,
      "name": "Material.005",
      "pbrMetallicRoughness": {
        "baseColorFactor": [
          0.0,
          0.0,
          0.0,
          1.0
        ],
        "metallicFactor": 0.0
      }
    }
  ],
  "meshes": [
    {
      "name": "Cube_Material.001_0",
      "primitives": [
        {
          "attributes": {
            "NORMAL": 1,
            "POSITION": 0,
            "TEXCOORD_0": 2
          },
          "indices": 3,
          "material": 0,
          "mode": 4
        }
      ]
    },
    {
      "name": "Cube_Material.007_0",
      "primitives": [
        {
          "attributes": {
            "NORMAL": 5,
            "POSITION": 4,
            "TEXCOORD_0": 6
          },
          "indices": 7,
          "material": 1,
          "mode": 4
        }
      ]
    },
    {
      "name": "Cube_Material.009_0",
      "primitives": [
        {
          "attributes": {
            "NORMAL": 9,
            "POSITION": 8,
            "TEXCOORD_0": 10
          },
          "indices": 11,
          "material": 2,
          "mode": 4
        }
      ]
    },
    {
      "name": "Cube_Material.003_0",
      "primitives": [
        {
          "attributes": {
            "NORMAL": 13,
            "POSITION": 12,
            "TEXCOORD_0": 14
          },
          "indices": 15,
          "material": 3,
          "mode": 4
        }
      ]
    },
    {
      "name": "Cube_Material.004_0",
      "primitives": [
        {
          "attributes": {
            "NORMAL": 17,
            "POSITION": 16,
            "TEXCOORD_0": 18
          },
          "indices": 19,
          "material": 4,
          "mode": 4
        }
      ]
    },
    {
      "name": "Cube_Material_0",
      "primitives": [
        {
          "attributes": {
            "NORMAL": 21,
            "POSITION": 20,
            "TEXCOORD_0": 22
          },
          "indices": 23,
          "material": 5,
          "mode": 4
        }
      ]
    },
    {
      "name": "Cube_Material.002_0",
      "primitives": [
        {
          "attributes": {
            "NORMAL": 25,
            "POSITION": 24,
            "TEXCOORD_0": 26
          },
          "indices": 27,
          "material": 6,
          "mode": 4
        }
      ]
    },
    {
      "name": "Cube_Material.005_0",
      "primitives": [
        {
          "attributes": {
            "NORMAL": 29,
            "POSITION": 28,
            "TEXCOORD_0": 30
          },
          "indices": 31,
          "material": 7,
          "mode": 4
        }
      ]
    }
  ],
  "nodes": [
    {
      "children": [
        1
      ],
      "matrix": [
        1.0,
        0.0,
        0.0,
        0.0,
        0.0,
        2.220446049250313e-16,
        -1.0,
        0.0,
        0.0,
        1.0,
        2.220446049250313e-16,
        0.0,
        0.0,
        0.0,
        0.0,
        1.0
      ],
      "name": "Sketchfab_model"
    },
    {
      "children": [
        2
      ],
      "matrix": [
        0.009999999776482582,
        0.0,
        0.0,
        0.0,
        0.0,
        0.0,
        0.009999999776482582,
        0.0,
        0.0,
        -0.009999999776482582,
        0.0,
        0.0,
        0.0,
        0.0,
        0.0,
        1.0
      ],
      "name": "78765458011f44478292de236603afe0.fbx"
    },
    {
      "children": [
        3
      ],
      "name": "RootNode"
    },
    {
      "children": [
        4,
        5,
        6,
        7,
        8,
        9,
        10,
        11
      ],
      "matrix": [
        11.843446731567383,
        -6.635748237625547e-16,
        -8.509734928713656e-17,
        0.0,
        7.232767017552138e-17,
        2.5400305459010264,
        -9.740508016398499,
        0.0,
        5.64000152008107e-16,
        9.740508016398499,
        2.5400305459010264,
        0.0,
        1.1993499489176222e-14,
        280.4937744140625,
        -85.432861328125,
        1.0
      ],
      "name": "Cube"
    },
    {
      "mesh": 0,
      "name": "Cube_Material.001_0"
    },
    {
      "mesh": 1,
      "name": "Cube_Material.007_0"
    },
    {
      "mesh": 2,
      "name": "Cube_Material.009_0"
    },
    {
      "mesh": 3,
      "name": "Cube_Material.003_0"
    },
    {
      "mesh": 4,
      "name": "Cube_Material.004_0"
    },
    {
      "mesh": 5,
      "name": "Cube_Material_0"
    },
    {
      "mesh": 6,
      "name": "Cube_Material.002_0"
    },
    {
      "mesh": 7,
      "name": "Cube_Material.005_0"
    }
  ],
  "scene": 0,
  "scenes": [
    {
      "name": "Sketchfab_Scene",
      "nodes": [
        0
      ]
    }
  ]
}
